<?xml version="1.0" encoding="UTF-8" standalone="no"?>
<svg
   xmlns:dc="http://purl.org/dc/elements/1.1/"
   xmlns:cc="http://creativecommons.org/ns#"
   xmlns:rdf="http://www.w3.org/1999/02/22-rdf-syntax-ns#"
   xmlns:svg="http://www.w3.org/2000/svg"
   xmlns="http://www.w3.org/2000/svg"
   xmlns:sodipodi="http://sodipodi.sourceforge.net/DTD/sodipodi-0.dtd"
   xmlns:inkscape="http://www.inkscape.org/namespaces/inkscape"
   inkscape:version="1.0 (4035a4fb49, 2020-05-01)"
   sodipodi:docname="innercircle.svg"
   viewBox="0 0 1082.6667 1084"
   height="1084"
   width="1082.6667"
   id="svg833"
   version="1.1">
  <metadata
     id="metadata839">
    <rdf:RDF>
      <cc:Work
         rdf:about="">
        <dc:format>image/svg+xml</dc:format>
        <dc:type
           rdf:resource="http://purl.org/dc/dcmitype/StillImage" />
        <dc:title></dc:title>
      </cc:Work>
    </rdf:RDF>
  </metadata>
  <defs
     id="defs837" />
  <sodipodi:namedview
     inkscape:current-layer="g841"
     inkscape:window-maximized="1"
     inkscape:window-y="-8"
     inkscape:window-x="-8"
     inkscape:cy="471.45642"
     inkscape:cx="464.74797"
     inkscape:zoom="0.45363969"
     showgrid="false"
     id="namedview835"
     inkscape:window-height="705"
     inkscape:window-width="1366"
     inkscape:pageshadow="2"
     inkscape:pageopacity="0"
     guidetolerance="10"
     gridtolerance="10"
     objecttolerance="10"
     borderopacity="1"
     bordercolor="#666666"
     pagecolor="#ffffff" />
  <g
     id="g841"
     inkscape:label="Image"
     inkscape:groupmode="layer">
    <g
       transform="translate(-7.2443436,0.86489536)"
       inkscape:transform-center-y="-61.722995"
       inkscape:transform-center-x="-251.30076"
       id="g853">
      <path
         id="path865"
         d="m 523.87963,608.56511 c -26.21436,-5.41001 -50.88464,-24.82207 -62.51397,-49.18975 -21.26298,-44.55364 -3.3387,-96.43074 40.97395,-118.58833 44.20757,-22.10504 96.35692,-6.89132 121.242,35.37035 7.41492,12.59258 10.50268,23.55529 11.28779,40.07605 1.2977,27.3072 -6.65754,48.12697 -25.72577,67.32716 -8.97296,9.03507 -12.88289,11.86237 -23.35398,16.88752 -20.77475,9.96995 -40.43898,12.54812 -61.91002,8.117 z m 45.40571,-17.63065 c 22.31709,-7.76922 38.72141,-23.96106 46.83234,-46.22576 3.46305,-9.50622 3.46305,-38.49379 0,-48 -8.67186,-23.80448 -28.82257,-42.35443 -52.90326,-48.70066 -8.73649,-2.30242 -29.88436,-2.0725 -39.48815,0.4293 -25.62848,6.67628 -48.30284,30.05142 -53.67797,55.33698 -3.41532,16.06623 -1.33056,35.40615 5.22748,48.49412 8.31178,16.58796 16.30601,24.96276 32.13227,33.66196 11.81993,6.49706 20.78688,8.59106 37.13825,8.67271 12.00791,0.06 15.52808,-0.46205 24.73904,-3.66865 z"
         style="fill:#d2ebf6;stroke-width:1.33333" />
      <path
         id="path863"
         d="m 524.11317,607.20571 c -39.6721,-8.51116 -70.23354,-45.68657 -70.23354,-85.43317 0,-26.46016 9.40124,-47.66799 29.29596,-66.08744 41.99594,-38.88182 109.1138,-28.7352 139.06711,21.0236 7.63544,12.6841 10.61072,23.21742 11.29854,40 1.13166,27.613 -5.92482,45.63392 -25.62274,65.43561 -9.88773,9.93983 -14.06393,13.08259 -23.3722,17.58859 -18.94408,9.17057 -40.24327,11.8043 -60.43313,7.47281 z m 37.06154,-9.17893 c 59.31822,-12.5652 83.37891,-83.33827 44.00204,-129.42938 -22.69352,-26.56305 -65.16438,-34.93588 -97.03158,-19.12909 -26.33869,13.06452 -42.38899,36.87065 -44.51215,66.02131 -3.8169,52.40541 44.95648,93.67613 97.54169,82.53716 z"
         style="fill:#a3d4ea;stroke-width:1.33333" />
      <path
         id="path861"
         d="m 527.87963,607.31108 c -11.1021,-2.07473 -25.89114,-8.31397 -35.69471,-15.059 -24.12482,-16.59832 -40.72838,-50.79174 -37.65332,-77.54338 3.79634,-33.02635 20.04724,-57.03068 48.68137,-71.90755 13.93026,-7.23748 24.67097,-9.86184 40.66666,-9.93641 21.1517,-0.0987 38.83763,6.12482 56.8971,20.02126 19.0598,14.66619 33.10291,43.51192 33.10291,67.9962 0,17.22924 -8.79648,40.88232 -20.43096,54.93735 -20.42745,24.67737 -54.64543,37.27044 -85.56905,31.49153 z m 36.0532,-7.95576 c 15.06688,-3.82994 27.00514,-10.7828 38.67064,-22.52185 17.56891,-17.67967 24.06319,-34.89925 22.92718,-60.79144 -0.69011,-15.7288 -3.99936,-26.41964 -12.09572,-39.07631 -10.11923,-15.81889 -29.93384,-30.06902 -48.41442,-34.81832 -10.33566,-2.65614 -32.03909,-2.7209 -41.80754,-0.12473 -22.81313,6.06305 -43.19199,22.72481 -53.02435,43.35269 -6.3653,13.35411 -8.30899,21.7253 -8.30899,35.7855 0,21.51545 8.14563,40.70198 23.86593,56.21481 11.51318,11.36121 22.09869,17.55597 36.40302,21.30348 12.00889,3.14613 30.86695,3.45131 41.78425,0.67617 z"
         style="fill:#75c5ea;stroke-width:1.33333" />
      <path
         id="path859"
         d="m 527.87963,607.31108 c -11.1021,-2.07473 -25.89114,-8.31397 -35.69471,-15.059 -24.12482,-16.59832 -40.72838,-50.79174 -37.65332,-77.54338 3.79634,-33.02635 20.04724,-57.03068 48.68137,-71.90755 13.93026,-7.23748 24.67097,-9.86184 40.66666,-9.93641 21.1517,-0.0987 38.83763,6.12482 56.8971,20.02126 19.0598,14.66619 33.10291,43.51192 33.10291,67.9962 0,17.22924 -8.79648,40.88232 -20.43096,54.93735 -20.42745,24.67737 -54.64543,37.27044 -85.56905,31.49153 z m 44.47738,-8.60096 c 4.66254,-1.6556 12.8895,-5.9612 18.28212,-9.56801 23.83783,-15.94371 36.91708,-40.15923 36.96216,-68.43341 0.0367,-23.02043 -7.63449,-41.26515 -24.46398,-58.18368 -7.98936,-8.03163 -12.50333,-11.31352 -21.36054,-15.53023 -14.49024,-6.89845 -22.97339,-8.83423 -38.5638,-8.79989 -31.73378,0.0699 -61.19194,18.29246 -74.44617,46.0518 -6.49633,13.60576 -8.2205,21.53229 -8.2205,37.79213 0,26.02188 12.47508,50.05976 33.87813,65.2788 8.97514,6.38195 14.82712,9.19655 26.78854,12.88437 11.60129,3.5768 39.13106,2.77376 51.14404,-1.49188 z"
         style="fill:#8bbad3;stroke-width:1.33333" />
      <path
         id="path857"
         d="m 527.21297,606.0206 c -22.0427,-4.50394 -40.74207,-15.7874 -52.99613,-31.97857 -17.7908,-23.50683 -23.1372,-51.71203 -14.92858,-78.75652 15.14994,-49.91381 74.71449,-76.03176 121.8778,-53.44116 12.82747,6.14419 24.76309,15.27944 31.99795,24.49049 41.34284,52.63559 12.76543,127.11158 -53.65039,139.81902 -11.86915,2.27094 -20.71288,2.23446 -32.30065,-0.1332 z m 45.14404,-7.31048 c 4.66254,-1.6556 12.8895,-5.9612 18.28212,-9.56801 23.83783,-15.94371 36.91708,-40.15923 36.96216,-68.43341 0.0367,-23.02043 -7.63449,-41.26515 -24.46398,-58.18368 -7.98936,-8.03163 -12.50333,-11.31352 -21.36054,-15.53023 -14.49024,-6.89845 -22.97339,-8.83423 -38.5638,-8.79989 -31.73378,0.0699 -61.19194,18.29246 -74.44617,46.0518 -6.49633,13.60576 -8.2205,21.53229 -8.2205,37.79213 0,26.02188 12.47508,50.05976 33.87813,65.2788 8.97514,6.38195 14.82712,9.19655 26.78854,12.88437 11.60129,3.5768 39.13106,2.77376 51.14404,-1.49188 z"
         style="fill:#6fadcd;stroke-width:1.33333" />
      <path
         id="path855"
         d="m 524.5463,604.59438 c -10.76388,-2.29339 -27.77331,-10.71028 -37.09231,-18.35463 -7.84997,-6.43932 -18.83904,-20.74927 -23.10456,-30.08675 -16.27328,-35.62314 -5.77631,-79.25833 24.59472,-102.23852 33.8149,-25.58598 75.64678,-25.52956 110.58047,0.14916 13.23935,9.73184 25.70838,29.89635 29.7667,48.13775 2.87434,12.91961 2.05298,32.15709 -1.90026,44.50731 -13.37066,41.77093 -58.70905,67.28941 -102.84476,57.88568 z m 47.81071,-5.88426 c 4.66254,-1.6556 12.8895,-5.9612 18.28212,-9.56801 23.83783,-15.94371 36.91708,-40.15923 36.96216,-68.43341 0.0367,-23.02043 -7.63449,-41.26515 -24.46398,-58.18368 -7.98936,-8.03163 -12.50333,-11.31352 -21.36054,-15.53023 -14.49024,-6.89845 -22.97339,-8.83423 -38.5638,-8.79989 -31.73378,0.0699 -61.19194,18.29246 -74.44617,46.0518 -6.49633,13.60576 -8.2205,21.53229 -8.2205,37.79213 0,26.02188 12.47508,50.05976 33.87813,65.2788 8.97514,6.38195 14.82712,9.19655 26.78854,12.88437 11.60129,3.5768 39.13106,2.77376 51.14404,-1.49188 z"
         style="fill:#4fa7d4;stroke-width:1.33333" />
    </g>
  </g>
</svg>
